<?xml version="1.0" encoding="UTF-8" standalone="no"?>
<!DOCTYPE svg PUBLIC "-//W3C//DTD SVG 1.1//EN"
 "http://www.w3.org/Graphics/SVG/1.1/DTD/svg11.dtd">
<!-- Generated by graphviz version 2.47.0 (20210316.0004)
 -->
<!-- Title: dependencies Pages: 1 -->
<svg width="2237pt" height="284pt"
 viewBox="0.00 0.00 2237.00 284.00" xmlns="http://www.w3.org/2000/svg" xmlns:xlink="http://www.w3.org/1999/xlink">
<g id="graph0" class="graph" transform="scale(1 1) rotate(0) translate(4 280)">
<title>dependencies</title>
<polygon fill="white" stroke="transparent" points="-4,4 -4,-280 2233,-280 2233,4 -4,4"/>
<text text-anchor="start" x="1093.51" y="-42.4" font-family="Times-12" font-weight="bold" font-size="14.00">Legend</text>
<polygon fill="#ffffb3" stroke="transparent" points="880.5,-10 880.5,-30 900.5,-30 900.5,-10 880.5,-10"/>
<text text-anchor="start" x="904.13" y="-15.4" font-family="Times-12" font-size="14.00"> &#160;Declarations</text>
<polygon fill="#8dd3c7" stroke="transparent" points="993.5,-10 993.5,-30 1013.5,-30 1013.5,-10 993.5,-10"/>
<text text-anchor="start" x="1017.23" y="-15.4" font-family="Times-12" font-size="14.00"> &#160;Module</text>
<polygon fill="#80b1d3" stroke="transparent" points="1079.5,-10 1079.5,-30 1099.5,-30 1099.5,-10 1079.5,-10"/>
<text text-anchor="start" x="1103.28" y="-15.4" font-family="Times-12" font-size="14.00"> &#160;Bootstrap</text>
<polygon fill="#fdb462" stroke="transparent" points="1176.5,-10 1176.5,-30 1196.5,-30 1196.5,-10 1176.5,-10"/>
<text text-anchor="start" x="1200.17" y="-15.4" font-family="Times-12" font-size="14.00"> &#160;Providers</text>
<polygon fill="#fb8072" stroke="transparent" points="1272.5,-10 1272.5,-30 1292.5,-30 1292.5,-10 1272.5,-10"/>
<text text-anchor="start" x="1296.23" y="-15.4" font-family="Times-12" font-size="14.00"> &#160;Exports</text>
<g id="clust1" class="cluster">
<title>cluster_AppModule</title>
<polygon fill="none" stroke="black" stroke-dasharray="1,5" points="8,-70 8,-268 2221,-268 2221,-70 8,-70"/>
</g>
<g id="clust16" class="cluster">
<title>cluster_AppModule_imports</title>
<polygon fill="none" stroke="black" points="1970,-78 1970,-130 2213,-130 2213,-78 1970,-78"/>
</g>
<g id="clust18" class="cluster">
<title>cluster_AppModule_bootstrap</title>
<polygon fill="none" stroke="black" points="1067,-208 1067,-260 1191,-260 1191,-208 1067,-208"/>
</g>
<g id="clust2" class="cluster">
<title>cluster_AppModule_declarations</title>
<polygon fill="none" stroke="black" points="16,-78 16,-130 1962,-130 1962,-78 16,-78"/>
</g>
<!-- AjouterComponent -->
<g id="node1" class="node">
<title>AjouterComponent</title>
<polygon fill="#ffffb3" stroke="black" points="1954.1,-122 1829.9,-122 1829.9,-86 1954.1,-86 1954.1,-122"/>
<text text-anchor="middle" x="1892" y="-99.8" font-family="Times,serif" font-size="14.00">AjouterComponent</text>
</g>
<!-- AppModule -->
<g id="node14" class="node">
<title>AppModule</title>
<polygon fill="#8dd3c7" stroke="black" points="1170.66,-187 1167.66,-191 1146.66,-191 1143.66,-187 1087.34,-187 1087.34,-151 1170.66,-151 1170.66,-187"/>
<text text-anchor="middle" x="1129" y="-164.8" font-family="Times,serif" font-size="14.00">AppModule</text>
</g>
<!-- AjouterComponent&#45;&gt;AppModule -->
<g id="edge1" class="edge">
<title>AjouterComponent&#45;&gt;AppModule</title>
<path fill="none" stroke="black" d="M1892,-122.03C1892,-142.77 1892,-174 1892,-174 1892,-174 1180.84,-174 1180.84,-174"/>
<polygon fill="black" stroke="black" points="1180.84,-170.5 1170.84,-174 1180.84,-177.5 1180.84,-170.5"/>
</g>
<!-- AppComponent -->
<g id="node2" class="node">
<title>AppComponent</title>
<polygon fill="#ffffb3" stroke="black" points="1811.94,-122 1706.06,-122 1706.06,-86 1811.94,-86 1811.94,-122"/>
<text text-anchor="middle" x="1759" y="-99.8" font-family="Times,serif" font-size="14.00">AppComponent</text>
</g>
<!-- AppComponent&#45;&gt;AppModule -->
<g id="edge2" class="edge">
<title>AppComponent&#45;&gt;AppModule</title>
<path fill="none" stroke="black" d="M1759,-122.11C1759,-141.34 1759,-169 1759,-169 1759,-169 1180.82,-169 1180.82,-169"/>
<polygon fill="black" stroke="black" points="1180.82,-165.5 1170.82,-169 1180.82,-172.5 1180.82,-165.5"/>
</g>
<!-- CategoriesComponent -->
<g id="node3" class="node">
<title>CategoriesComponent</title>
<polygon fill="#ffffb3" stroke="black" points="1688.7,-122 1547.3,-122 1547.3,-86 1688.7,-86 1688.7,-122"/>
<text text-anchor="middle" x="1618" y="-99.8" font-family="Times,serif" font-size="14.00">CategoriesComponent</text>
</g>
<!-- CategoriesComponent&#45;&gt;AppModule -->
<g id="edge3" class="edge">
<title>CategoriesComponent&#45;&gt;AppModule</title>
<path fill="none" stroke="black" d="M1618,-122.3C1618,-140.27 1618,-165 1618,-165 1618,-165 1180.69,-165 1180.69,-165"/>
<polygon fill="black" stroke="black" points="1180.69,-161.5 1170.69,-165 1180.69,-168.5 1180.69,-161.5"/>
</g>
<!-- CategoryProfilComponent -->
<g id="node4" class="node">
<title>CategoryProfilComponent</title>
<polygon fill="#ffffb3" stroke="black" points="1529.04,-122 1364.96,-122 1364.96,-86 1529.04,-86 1529.04,-122"/>
<text text-anchor="middle" x="1447" y="-99.8" font-family="Times,serif" font-size="14.00">CategoryProfilComponent</text>
</g>
<!-- CategoryProfilComponent&#45;&gt;AppModule -->
<g id="edge4" class="edge">
<title>CategoryProfilComponent&#45;&gt;AppModule</title>
<path fill="none" stroke="black" d="M1447,-122.03C1447,-138.4 1447,-160 1447,-160 1447,-160 1180.9,-160 1180.9,-160"/>
<polygon fill="black" stroke="black" points="1180.9,-156.5 1170.9,-160 1180.9,-163.5 1180.9,-156.5"/>
</g>
<!-- EmpruntsComponent -->
<g id="node5" class="node">
<title>EmpruntsComponent</title>
<polygon fill="#ffffb3" stroke="black" points="1346.77,-122 1211.23,-122 1211.23,-86 1346.77,-86 1346.77,-122"/>
<text text-anchor="middle" x="1279" y="-99.8" font-family="Times,serif" font-size="14.00">EmpruntsComponent</text>
</g>
<!-- EmpruntsComponent&#45;&gt;AppModule -->
<g id="edge5" class="edge">
<title>EmpruntsComponent&#45;&gt;AppModule</title>
<path fill="none" stroke="black" d="M1279,-122.19C1279,-137.18 1279,-156 1279,-156 1279,-156 1180.78,-156 1180.78,-156"/>
<polygon fill="black" stroke="black" points="1180.78,-152.5 1170.78,-156 1180.78,-159.5 1180.78,-152.5"/>
</g>
<!-- EtudiantComponent -->
<g id="node6" class="node">
<title>EtudiantComponent</title>
<polygon fill="#ffffb3" stroke="black" points="1193.27,-122 1064.73,-122 1064.73,-86 1193.27,-86 1193.27,-122"/>
<text text-anchor="middle" x="1129" y="-99.8" font-family="Times,serif" font-size="14.00">EtudiantComponent</text>
</g>
<!-- EtudiantComponent&#45;&gt;AppModule -->
<g id="edge6" class="edge">
<title>EtudiantComponent&#45;&gt;AppModule</title>
<path fill="none" stroke="black" d="M1129,-122.11C1129,-122.11 1129,-140.99 1129,-140.99"/>
<polygon fill="black" stroke="black" points="1125.5,-140.99 1129,-150.99 1132.5,-140.99 1125.5,-140.99"/>
</g>
<!-- HomeComponent -->
<g id="node7" class="node">
<title>HomeComponent</title>
<polygon fill="#ffffb3" stroke="black" points="1046.55,-122 931.45,-122 931.45,-86 1046.55,-86 1046.55,-122"/>
<text text-anchor="middle" x="989" y="-99.8" font-family="Times,serif" font-size="14.00">HomeComponent</text>
</g>
<!-- HomeComponent&#45;&gt;AppModule -->
<g id="edge7" class="edge">
<title>HomeComponent&#45;&gt;AppModule</title>
<path fill="none" stroke="black" d="M989,-122.19C989,-137.18 989,-156 989,-156 989,-156 1077,-156 1077,-156"/>
<polygon fill="black" stroke="black" points="1077,-159.5 1087,-156 1077,-152.5 1077,-159.5"/>
</g>
<!-- LivreComponent -->
<g id="node8" class="node">
<title>LivreComponent</title>
<polygon fill="#ffffb3" stroke="black" points="912.65,-122 801.35,-122 801.35,-86 912.65,-86 912.65,-122"/>
<text text-anchor="middle" x="857" y="-99.8" font-family="Times,serif" font-size="14.00">LivreComponent</text>
</g>
<!-- LivreComponent&#45;&gt;AppModule -->
<g id="edge8" class="edge">
<title>LivreComponent&#45;&gt;AppModule</title>
<path fill="none" stroke="black" d="M857,-122.03C857,-138.4 857,-160 857,-160 857,-160 1077.1,-160 1077.1,-160"/>
<polygon fill="black" stroke="black" points="1077.1,-163.5 1087.1,-160 1077.1,-156.5 1077.1,-163.5"/>
</g>
<!-- LivreProfilComponent -->
<g id="node9" class="node">
<title>LivreProfilComponent</title>
<polygon fill="#ffffb3" stroke="black" points="782.54,-122 639.46,-122 639.46,-86 782.54,-86 782.54,-122"/>
<text text-anchor="middle" x="711" y="-99.8" font-family="Times,serif" font-size="14.00">LivreProfilComponent</text>
</g>
<!-- LivreProfilComponent&#45;&gt;AppModule -->
<g id="edge9" class="edge">
<title>LivreProfilComponent&#45;&gt;AppModule</title>
<path fill="none" stroke="black" d="M711,-122.3C711,-140.27 711,-165 711,-165 711,-165 1077.01,-165 1077.01,-165"/>
<polygon fill="black" stroke="black" points="1077.01,-168.5 1087.01,-165 1077.01,-161.5 1077.01,-168.5"/>
</g>
<!-- LivresAssociesComponent -->
<g id="node10" class="node">
<title>LivresAssociesComponent</title>
<polygon fill="#ffffb3" stroke="black" points="621.36,-122 454.64,-122 454.64,-86 621.36,-86 621.36,-122"/>
<text text-anchor="middle" x="538" y="-99.8" font-family="Times,serif" font-size="14.00">LivresAssociesComponent</text>
</g>
<!-- LivresAssociesComponent&#45;&gt;AppModule -->
<g id="edge10" class="edge">
<title>LivresAssociesComponent&#45;&gt;AppModule</title>
<path fill="none" stroke="black" d="M538,-122.11C538,-141.34 538,-169 538,-169 538,-169 1076.97,-169 1076.97,-169"/>
<polygon fill="black" stroke="black" points="1076.97,-172.5 1086.97,-169 1076.97,-165.5 1076.97,-172.5"/>
</g>
<!-- PowerBiComponent -->
<g id="node11" class="node">
<title>PowerBiComponent</title>
<polygon fill="#ffffb3" stroke="black" points="436.32,-122 305.68,-122 305.68,-86 436.32,-86 436.32,-122"/>
<text text-anchor="middle" x="371" y="-99.8" font-family="Times,serif" font-size="14.00">PowerBiComponent</text>
</g>
<!-- PowerBiComponent&#45;&gt;AppModule -->
<g id="edge11" class="edge">
<title>PowerBiComponent&#45;&gt;AppModule</title>
<path fill="none" stroke="black" d="M371,-122.03C371,-142.77 371,-174 371,-174 371,-174 1077.17,-174 1077.17,-174"/>
<polygon fill="black" stroke="black" points="1077.17,-177.5 1087.17,-174 1077.17,-170.5 1077.17,-177.5"/>
</g>
<!-- ProfileComponent -->
<g id="node12" class="node">
<title>ProfileComponent</title>
<polygon fill="#ffffb3" stroke="black" points="287.93,-122 168.07,-122 168.07,-86 287.93,-86 287.93,-122"/>
<text text-anchor="middle" x="228" y="-99.8" font-family="Times,serif" font-size="14.00">ProfileComponent</text>
</g>
<!-- ProfileComponent&#45;&gt;AppModule -->
<g id="edge12" class="edge">
<title>ProfileComponent&#45;&gt;AppModule</title>
<path fill="none" stroke="black" d="M228,-122.29C228,-144.21 228,-178 228,-178 228,-178 1077.05,-178 1077.05,-178"/>
<polygon fill="black" stroke="black" points="1077.05,-181.5 1087.05,-178 1077.05,-174.5 1077.05,-181.5"/>
</g>
<!-- RservesComponent -->
<g id="node13" class="node">
<title>RservesComponent</title>
<polygon fill="#ffffb3" stroke="black" points="149.65,-122 24.35,-122 24.35,-86 149.65,-86 149.65,-122"/>
<text text-anchor="middle" x="87" y="-99.8" font-family="Times,serif" font-size="14.00">RservesComponent</text>
</g>
<!-- RservesComponent&#45;&gt;AppModule -->
<g id="edge13" class="edge">
<title>RservesComponent&#45;&gt;AppModule</title>
<path fill="none" stroke="black" d="M87,-122.32C87,-145.66 87,-183 87,-183 87,-183 1077.19,-183 1077.19,-183"/>
<polygon fill="black" stroke="black" points="1077.19,-186.5 1087.19,-183 1077.19,-179.5 1077.19,-186.5"/>
</g>
<!-- AppComponent  -->
<g id="node17" class="node">
<title>AppComponent </title>
<polygon fill="#80b1d3" stroke="black" points="1183.44,-252 1074.56,-252 1074.56,-216 1183.44,-216 1183.44,-252"/>
<text text-anchor="middle" x="1129" y="-229.8" font-family="Times,serif" font-size="14.00">AppComponent </text>
</g>
<!-- AppModule&#45;&gt;AppComponent  -->
<g id="edge16" class="edge">
<title>AppModule&#45;&gt;AppComponent </title>
<path fill="none" stroke="black" stroke-dasharray="1,5" d="M1129,-187.11C1129,-187.11 1129,-205.99 1129,-205.99"/>
<polygon fill="black" stroke="black" points="1125.5,-205.99 1129,-215.99 1132.5,-205.99 1125.5,-205.99"/>
</g>
<!-- AppRoutingModule -->
<g id="node15" class="node">
<title>AppRoutingModule</title>
<polygon fill="#8dd3c7" stroke="black" points="2205.27,-122 2202.27,-126 2181.27,-126 2178.27,-122 2076.73,-122 2076.73,-86 2205.27,-86 2205.27,-122"/>
<text text-anchor="middle" x="2141" y="-99.8" font-family="Times,serif" font-size="14.00">AppRoutingModule</text>
</g>
<!-- AppRoutingModule&#45;&gt;AppModule -->
<g id="edge14" class="edge">
<title>AppRoutingModule&#45;&gt;AppModule</title>
<path fill="none" stroke="black" d="M2141,-122.32C2141,-145.66 2141,-183 2141,-183 2141,-183 1180.88,-183 1180.88,-183"/>
<polygon fill="black" stroke="black" points="1180.88,-179.5 1170.88,-183 1180.88,-186.5 1180.88,-179.5"/>
</g>
<!-- MatDrawer -->
<g id="node16" class="node">
<title>MatDrawer</title>
<polygon fill="#8dd3c7" stroke="black" points="2058.01,-122 2055.01,-126 2034.01,-126 2031.01,-122 1977.99,-122 1977.99,-86 2058.01,-86 2058.01,-122"/>
<text text-anchor="middle" x="2018" y="-99.8" font-family="Times,serif" font-size="14.00">MatDrawer</text>
</g>
<!-- MatDrawer&#45;&gt;AppModule -->
<g id="edge15" class="edge">
<title>MatDrawer&#45;&gt;AppModule</title>
<path fill="none" stroke="black" d="M2018,-122.29C2018,-144.21 2018,-178 2018,-178 2018,-178 1180.69,-178 1180.69,-178"/>
<polygon fill="black" stroke="black" points="1180.69,-174.5 1170.69,-178 1180.69,-181.5 1180.69,-174.5"/>
</g>
</g>
</svg>
