<?xml version="1.0" encoding="UTF-8" standalone="no"?>
<!DOCTYPE svg PUBLIC "-//W3C//DTD SVG 1.1//EN"
 "http://www.w3.org/Graphics/SVG/1.1/DTD/svg11.dtd">
<!-- Generated by graphviz version 2.47.0 (20210316.0004)
 -->
<!-- Title: dependencies Pages: 1 -->
<svg width="2052pt" height="284pt"
 viewBox="0.00 0.00 2052.00 284.00" xmlns="http://www.w3.org/2000/svg" xmlns:xlink="http://www.w3.org/1999/xlink">
<g id="graph0" class="graph" transform="scale(1 1) rotate(0) translate(4 280)">
<title>dependencies</title>
<polygon fill="white" stroke="transparent" points="-4,4 -4,-280 2048,-280 2048,4 -4,4"/>
<text text-anchor="start" x="1001.01" y="-42.4" font-family="Times-12" font-weight="bold" font-size="14.00">Legend</text>
<polygon fill="#ffffb3" stroke="transparent" points="788,-10 788,-30 808,-30 808,-10 788,-10"/>
<text text-anchor="start" x="811.63" y="-15.4" font-family="Times-12" font-size="14.00"> &#160;Declarations</text>
<polygon fill="#8dd3c7" stroke="transparent" points="901,-10 901,-30 921,-30 921,-10 901,-10"/>
<text text-anchor="start" x="924.73" y="-15.4" font-family="Times-12" font-size="14.00"> &#160;Module</text>
<polygon fill="#80b1d3" stroke="transparent" points="987,-10 987,-30 1007,-30 1007,-10 987,-10"/>
<text text-anchor="start" x="1010.78" y="-15.4" font-family="Times-12" font-size="14.00"> &#160;Bootstrap</text>
<polygon fill="#fdb462" stroke="transparent" points="1084,-10 1084,-30 1104,-30 1104,-10 1084,-10"/>
<text text-anchor="start" x="1107.67" y="-15.4" font-family="Times-12" font-size="14.00"> &#160;Providers</text>
<polygon fill="#fb8072" stroke="transparent" points="1180,-10 1180,-30 1200,-30 1200,-10 1180,-10"/>
<text text-anchor="start" x="1203.73" y="-15.4" font-family="Times-12" font-size="14.00"> &#160;Exports</text>
<g id="clust1" class="cluster">
<title>cluster_AppModule</title>
<polygon fill="none" stroke="black" stroke-dasharray="1,5" points="8,-70 8,-268 2036,-268 2036,-70 8,-70"/>
</g>
<g id="clust2" class="cluster">
<title>cluster_AppModule_declarations</title>
<polygon fill="none" stroke="black" points="267,-78 267,-130 2028,-130 2028,-78 267,-78"/>
</g>
<g id="clust15" class="cluster">
<title>cluster_AppModule_imports</title>
<polygon fill="none" stroke="black" points="16,-78 16,-130 259,-130 259,-78 16,-78"/>
</g>
<g id="clust17" class="cluster">
<title>cluster_AppModule_bootstrap</title>
<polygon fill="none" stroke="black" points="927,-208 927,-260 1051,-260 1051,-208 927,-208"/>
</g>
<!-- AjouterComponent -->
<g id="node1" class="node">
<title>AjouterComponent</title>
<polygon fill="#ffffb3" stroke="black" points="2020.1,-122 1895.9,-122 1895.9,-86 2020.1,-86 2020.1,-122"/>
<text text-anchor="middle" x="1958" y="-99.8" font-family="Times,serif" font-size="14.00">AjouterComponent</text>
</g>
<!-- AppModule -->
<g id="node13" class="node">
<title>AppModule</title>
<polygon fill="#8dd3c7" stroke="black" points="1030.66,-187 1027.66,-191 1006.66,-191 1003.66,-187 947.34,-187 947.34,-151 1030.66,-151 1030.66,-187"/>
<text text-anchor="middle" x="989" y="-164.8" font-family="Times,serif" font-size="14.00">AppModule</text>
</g>
<!-- AjouterComponent&#45;&gt;AppModule -->
<g id="edge1" class="edge">
<title>AjouterComponent&#45;&gt;AppModule</title>
<path fill="none" stroke="black" d="M1958,-122.09C1958,-145.13 1958,-182 1958,-182 1958,-182 1040.95,-182 1040.95,-182"/>
<polygon fill="black" stroke="black" points="1040.95,-178.5 1030.95,-182 1040.95,-185.5 1040.95,-178.5"/>
</g>
<!-- AppComponent -->
<g id="node2" class="node">
<title>AppComponent</title>
<polygon fill="#ffffb3" stroke="black" points="1877.94,-122 1772.06,-122 1772.06,-86 1877.94,-86 1877.94,-122"/>
<text text-anchor="middle" x="1825" y="-99.8" font-family="Times,serif" font-size="14.00">AppComponent</text>
</g>
<!-- AppComponent&#45;&gt;AppModule -->
<g id="edge2" class="edge">
<title>AppComponent&#45;&gt;AppModule</title>
<path fill="none" stroke="black" d="M1825,-122.04C1825,-143.66 1825,-177 1825,-177 1825,-177 1040.74,-177 1040.74,-177"/>
<polygon fill="black" stroke="black" points="1040.74,-173.5 1030.74,-177 1040.74,-180.5 1040.74,-173.5"/>
</g>
<!-- CategoriesComponent -->
<g id="node3" class="node">
<title>CategoriesComponent</title>
<polygon fill="#ffffb3" stroke="black" points="1754.7,-122 1613.3,-122 1613.3,-86 1754.7,-86 1754.7,-122"/>
<text text-anchor="middle" x="1684" y="-99.8" font-family="Times,serif" font-size="14.00">CategoriesComponent</text>
</g>
<!-- CategoriesComponent&#45;&gt;AppModule -->
<g id="edge3" class="edge">
<title>CategoriesComponent&#45;&gt;AppModule</title>
<path fill="none" stroke="black" d="M1684,-122.22C1684,-142.37 1684,-172 1684,-172 1684,-172 1040.91,-172 1040.91,-172"/>
<polygon fill="black" stroke="black" points="1040.91,-168.5 1030.91,-172 1040.91,-175.5 1040.91,-168.5"/>
</g>
<!-- CategoryProfilComponent -->
<g id="node4" class="node">
<title>CategoryProfilComponent</title>
<polygon fill="#ffffb3" stroke="black" points="1595.04,-122 1430.96,-122 1430.96,-86 1595.04,-86 1595.04,-122"/>
<text text-anchor="middle" x="1513" y="-99.8" font-family="Times,serif" font-size="14.00">CategoryProfilComponent</text>
</g>
<!-- CategoryProfilComponent&#45;&gt;AppModule -->
<g id="edge4" class="edge">
<title>CategoryProfilComponent&#45;&gt;AppModule</title>
<path fill="none" stroke="black" d="M1513,-122.22C1513,-140.83 1513,-167 1513,-167 1513,-167 1041,-167 1041,-167"/>
<polygon fill="black" stroke="black" points="1041,-163.5 1031,-167 1041,-170.5 1041,-163.5"/>
</g>
<!-- EmpruntsComponent -->
<g id="node5" class="node">
<title>EmpruntsComponent</title>
<polygon fill="#ffffb3" stroke="black" points="1412.77,-122 1277.23,-122 1277.23,-86 1412.77,-86 1412.77,-122"/>
<text text-anchor="middle" x="1345" y="-99.8" font-family="Times,serif" font-size="14.00">EmpruntsComponent</text>
</g>
<!-- EmpruntsComponent&#45;&gt;AppModule -->
<g id="edge5" class="edge">
<title>EmpruntsComponent&#45;&gt;AppModule</title>
<path fill="none" stroke="black" d="M1345,-122.03C1345,-139.06 1345,-162 1345,-162 1345,-162 1040.88,-162 1040.88,-162"/>
<polygon fill="black" stroke="black" points="1040.88,-158.5 1030.88,-162 1040.88,-165.5 1040.88,-158.5"/>
</g>
<!-- EtudiantComponent -->
<g id="node6" class="node">
<title>EtudiantComponent</title>
<polygon fill="#ffffb3" stroke="black" points="1259.27,-122 1130.73,-122 1130.73,-86 1259.27,-86 1259.27,-122"/>
<text text-anchor="middle" x="1195" y="-99.8" font-family="Times,serif" font-size="14.00">EtudiantComponent</text>
</g>
<!-- EtudiantComponent&#45;&gt;AppModule -->
<g id="edge6" class="edge">
<title>EtudiantComponent&#45;&gt;AppModule</title>
<path fill="none" stroke="black" d="M1195,-122.24C1195,-137.57 1195,-157 1195,-157 1195,-157 1040.69,-157 1040.69,-157"/>
<polygon fill="black" stroke="black" points="1040.69,-153.5 1030.69,-157 1040.69,-160.5 1040.69,-153.5"/>
</g>
<!-- HomeComponent -->
<g id="node7" class="node">
<title>HomeComponent</title>
<polygon fill="#ffffb3" stroke="black" points="1112.55,-122 997.45,-122 997.45,-86 1112.55,-86 1112.55,-122"/>
<text text-anchor="middle" x="1055" y="-99.8" font-family="Times,serif" font-size="14.00">HomeComponent</text>
</g>
<!-- HomeComponent&#45;&gt;AppModule -->
<g id="edge7" class="edge">
<title>HomeComponent&#45;&gt;AppModule</title>
<path fill="none" stroke="black" d="M1014.03,-122.11C1014.03,-122.11 1014.03,-140.99 1014.03,-140.99"/>
<polygon fill="black" stroke="black" points="1010.53,-140.99 1014.03,-150.99 1017.53,-140.99 1010.53,-140.99"/>
</g>
<!-- LivreComponent -->
<g id="node8" class="node">
<title>LivreComponent</title>
<polygon fill="#ffffb3" stroke="black" points="978.65,-122 867.35,-122 867.35,-86 978.65,-86 978.65,-122"/>
<text text-anchor="middle" x="923" y="-99.8" font-family="Times,serif" font-size="14.00">LivreComponent</text>
</g>
<!-- LivreComponent&#45;&gt;AppModule -->
<g id="edge8" class="edge">
<title>LivreComponent&#45;&gt;AppModule</title>
<path fill="none" stroke="black" d="M963,-122.11C963,-122.11 963,-140.99 963,-140.99"/>
<polygon fill="black" stroke="black" points="959.5,-140.99 963,-150.99 966.5,-140.99 959.5,-140.99"/>
</g>
<!-- LivreProfilComponent -->
<g id="node9" class="node">
<title>LivreProfilComponent</title>
<polygon fill="#ffffb3" stroke="black" points="848.54,-122 705.46,-122 705.46,-86 848.54,-86 848.54,-122"/>
<text text-anchor="middle" x="777" y="-99.8" font-family="Times,serif" font-size="14.00">LivreProfilComponent</text>
</g>
<!-- LivreProfilComponent&#45;&gt;AppModule -->
<g id="edge9" class="edge">
<title>LivreProfilComponent&#45;&gt;AppModule</title>
<path fill="none" stroke="black" d="M777,-122.24C777,-137.57 777,-157 777,-157 777,-157 937.12,-157 937.12,-157"/>
<polygon fill="black" stroke="black" points="937.12,-160.5 947.12,-157 937.12,-153.5 937.12,-160.5"/>
</g>
<!-- PowerBiComponent -->
<g id="node10" class="node">
<title>PowerBiComponent</title>
<polygon fill="#ffffb3" stroke="black" points="687.32,-122 556.68,-122 556.68,-86 687.32,-86 687.32,-122"/>
<text text-anchor="middle" x="622" y="-99.8" font-family="Times,serif" font-size="14.00">PowerBiComponent</text>
</g>
<!-- PowerBiComponent&#45;&gt;AppModule -->
<g id="edge10" class="edge">
<title>PowerBiComponent&#45;&gt;AppModule</title>
<path fill="none" stroke="black" d="M622,-122.03C622,-139.06 622,-162 622,-162 622,-162 937.26,-162 937.26,-162"/>
<polygon fill="black" stroke="black" points="937.26,-165.5 947.26,-162 937.26,-158.5 937.26,-165.5"/>
</g>
<!-- ProfileComponent -->
<g id="node11" class="node">
<title>ProfileComponent</title>
<polygon fill="#ffffb3" stroke="black" points="538.93,-122 419.07,-122 419.07,-86 538.93,-86 538.93,-122"/>
<text text-anchor="middle" x="479" y="-99.8" font-family="Times,serif" font-size="14.00">ProfileComponent</text>
</g>
<!-- ProfileComponent&#45;&gt;AppModule -->
<g id="edge11" class="edge">
<title>ProfileComponent&#45;&gt;AppModule</title>
<path fill="none" stroke="black" d="M479,-122.22C479,-140.83 479,-167 479,-167 479,-167 937.26,-167 937.26,-167"/>
<polygon fill="black" stroke="black" points="937.26,-170.5 947.26,-167 937.26,-163.5 937.26,-170.5"/>
</g>
<!-- RservesComponent -->
<g id="node12" class="node">
<title>RservesComponent</title>
<polygon fill="#ffffb3" stroke="black" points="400.65,-122 275.35,-122 275.35,-86 400.65,-86 400.65,-122"/>
<text text-anchor="middle" x="338" y="-99.8" font-family="Times,serif" font-size="14.00">RservesComponent</text>
</g>
<!-- RservesComponent&#45;&gt;AppModule -->
<g id="edge12" class="edge">
<title>RservesComponent&#45;&gt;AppModule</title>
<path fill="none" stroke="black" d="M338,-122.22C338,-142.37 338,-172 338,-172 338,-172 937.29,-172 937.29,-172"/>
<polygon fill="black" stroke="black" points="937.29,-175.5 947.29,-172 937.29,-168.5 937.29,-175.5"/>
</g>
<!-- AppComponent  -->
<g id="node16" class="node">
<title>AppComponent </title>
<polygon fill="#80b1d3" stroke="black" points="1043.44,-252 934.56,-252 934.56,-216 1043.44,-216 1043.44,-252"/>
<text text-anchor="middle" x="989" y="-229.8" font-family="Times,serif" font-size="14.00">AppComponent </text>
</g>
<!-- AppModule&#45;&gt;AppComponent  -->
<g id="edge15" class="edge">
<title>AppModule&#45;&gt;AppComponent </title>
<path fill="none" stroke="black" stroke-dasharray="1,5" d="M989,-187.11C989,-187.11 989,-205.99 989,-205.99"/>
<polygon fill="black" stroke="black" points="985.5,-205.99 989,-215.99 992.5,-205.99 985.5,-205.99"/>
</g>
<!-- AppRoutingModule -->
<g id="node14" class="node">
<title>AppRoutingModule</title>
<polygon fill="#8dd3c7" stroke="black" points="251.27,-122 248.27,-126 227.27,-126 224.27,-122 122.73,-122 122.73,-86 251.27,-86 251.27,-122"/>
<text text-anchor="middle" x="187" y="-99.8" font-family="Times,serif" font-size="14.00">AppRoutingModule</text>
</g>
<!-- AppRoutingModule&#45;&gt;AppModule -->
<g id="edge13" class="edge">
<title>AppRoutingModule&#45;&gt;AppModule</title>
<path fill="none" stroke="black" d="M187,-122.04C187,-143.66 187,-177 187,-177 187,-177 937.29,-177 937.29,-177"/>
<polygon fill="black" stroke="black" points="937.29,-180.5 947.29,-177 937.29,-173.5 937.29,-180.5"/>
</g>
<!-- MatDrawer -->
<g id="node15" class="node">
<title>MatDrawer</title>
<polygon fill="#8dd3c7" stroke="black" points="104.01,-122 101.01,-126 80.01,-126 77.01,-122 23.99,-122 23.99,-86 104.01,-86 104.01,-122"/>
<text text-anchor="middle" x="64" y="-99.8" font-family="Times,serif" font-size="14.00">MatDrawer</text>
</g>
<!-- MatDrawer&#45;&gt;AppModule -->
<g id="edge14" class="edge">
<title>MatDrawer&#45;&gt;AppModule</title>
<path fill="none" stroke="black" d="M64,-122.09C64,-145.13 64,-182 64,-182 64,-182 937.15,-182 937.15,-182"/>
<polygon fill="black" stroke="black" points="937.15,-185.5 947.15,-182 937.15,-178.5 937.15,-185.5"/>
</g>
</g>
</svg>
