<?xml version="1.0" encoding="UTF-8" standalone="no"?>
<!DOCTYPE svg PUBLIC "-//W3C//DTD SVG 1.1//EN"
 "http://www.w3.org/Graphics/SVG/1.1/DTD/svg11.dtd">
<!-- Generated by graphviz version 2.47.0 (20210316.0004)
 -->
<!-- Title: dependencies Pages: 1 -->
<svg width="2237pt" height="284pt"
 viewBox="0.00 0.00 2237.00 284.00" xmlns="http://www.w3.org/2000/svg" xmlns:xlink="http://www.w3.org/1999/xlink">
<g id="graph0" class="graph" transform="scale(1 1) rotate(0) translate(4 280)">
<title>dependencies</title>
<polygon fill="white" stroke="transparent" points="-4,4 -4,-280 2233,-280 2233,4 -4,4"/>
<text text-anchor="start" x="1093.51" y="-42.4" font-family="Times-12" font-weight="bold" font-size="14.00">Legend</text>
<polygon fill="#ffffb3" stroke="transparent" points="880.5,-10 880.5,-30 900.5,-30 900.5,-10 880.5,-10"/>
<text text-anchor="start" x="904.13" y="-15.4" font-family="Times-12" font-size="14.00"> &#160;Declarations</text>
<polygon fill="#8dd3c7" stroke="transparent" points="993.5,-10 993.5,-30 1013.5,-30 1013.5,-10 993.5,-10"/>
<text text-anchor="start" x="1017.23" y="-15.4" font-family="Times-12" font-size="14.00"> &#160;Module</text>
<polygon fill="#80b1d3" stroke="transparent" points="1079.5,-10 1079.5,-30 1099.5,-30 1099.5,-10 1079.5,-10"/>
<text text-anchor="start" x="1103.28" y="-15.4" font-family="Times-12" font-size="14.00"> &#160;Bootstrap</text>
<polygon fill="#fdb462" stroke="transparent" points="1176.5,-10 1176.5,-30 1196.5,-30 1196.5,-10 1176.5,-10"/>
<text text-anchor="start" x="1200.17" y="-15.4" font-family="Times-12" font-size="14.00"> &#160;Providers</text>
<polygon fill="#fb8072" stroke="transparent" points="1272.5,-10 1272.5,-30 1292.5,-30 1292.5,-10 1272.5,-10"/>
<text text-anchor="start" x="1296.23" y="-15.4" font-family="Times-12" font-size="14.00"> &#160;Exports</text>
<g id="clust1" class="cluster">
<title>cluster_AppModule</title>
<polygon fill="none" stroke="black" stroke-dasharray="1,5" points="8,-70 8,-268 2221,-268 2221,-70 8,-70"/>
</g>
<g id="clust2" class="cluster">
<title>cluster_AppModule_declarations</title>
<polygon fill="none" stroke="black" points="267,-78 267,-130 2213,-130 2213,-78 267,-78"/>
</g>
<g id="clust16" class="cluster">
<title>cluster_AppModule_imports</title>
<polygon fill="none" stroke="black" points="16,-78 16,-130 259,-130 259,-78 16,-78"/>
</g>
<g id="clust18" class="cluster">
<title>cluster_AppModule_bootstrap</title>
<polygon fill="none" stroke="black" points="1046,-208 1046,-260 1170,-260 1170,-208 1046,-208"/>
</g>
<!-- AjouterComponent -->
<g id="node1" class="node">
<title>AjouterComponent</title>
<polygon fill="#ffffb3" stroke="black" points="2205.1,-122 2080.9,-122 2080.9,-86 2205.1,-86 2205.1,-122"/>
<text text-anchor="middle" x="2143" y="-99.8" font-family="Times,serif" font-size="14.00">AjouterComponent</text>
</g>
<!-- AppModule -->
<g id="node14" class="node">
<title>AppModule</title>
<polygon fill="#8dd3c7" stroke="black" points="1149.66,-187 1146.66,-191 1125.66,-191 1122.66,-187 1066.34,-187 1066.34,-151 1149.66,-151 1149.66,-187"/>
<text text-anchor="middle" x="1108" y="-164.8" font-family="Times,serif" font-size="14.00">AppModule</text>
</g>
<!-- AjouterComponent&#45;&gt;AppModule -->
<g id="edge1" class="edge">
<title>AjouterComponent&#45;&gt;AppModule</title>
<path fill="none" stroke="black" d="M2143,-122.32C2143,-145.66 2143,-183 2143,-183 2143,-183 1159.86,-183 1159.86,-183"/>
<polygon fill="black" stroke="black" points="1159.86,-179.5 1149.86,-183 1159.86,-186.5 1159.86,-179.5"/>
</g>
<!-- AppComponent -->
<g id="node2" class="node">
<title>AppComponent</title>
<polygon fill="#ffffb3" stroke="black" points="2062.94,-122 1957.06,-122 1957.06,-86 2062.94,-86 2062.94,-122"/>
<text text-anchor="middle" x="2010" y="-99.8" font-family="Times,serif" font-size="14.00">AppComponent</text>
</g>
<!-- AppComponent&#45;&gt;AppModule -->
<g id="edge2" class="edge">
<title>AppComponent&#45;&gt;AppModule</title>
<path fill="none" stroke="black" d="M2010,-122.29C2010,-144.21 2010,-178 2010,-178 2010,-178 1159.7,-178 1159.7,-178"/>
<polygon fill="black" stroke="black" points="1159.7,-174.5 1149.7,-178 1159.7,-181.5 1159.7,-174.5"/>
</g>
<!-- CategoriesComponent -->
<g id="node3" class="node">
<title>CategoriesComponent</title>
<polygon fill="#ffffb3" stroke="black" points="1939.7,-122 1798.3,-122 1798.3,-86 1939.7,-86 1939.7,-122"/>
<text text-anchor="middle" x="1869" y="-99.8" font-family="Times,serif" font-size="14.00">CategoriesComponent</text>
</g>
<!-- CategoriesComponent&#45;&gt;AppModule -->
<g id="edge3" class="edge">
<title>CategoriesComponent&#45;&gt;AppModule</title>
<path fill="none" stroke="black" d="M1869,-122.03C1869,-142.77 1869,-174 1869,-174 1869,-174 1159.73,-174 1159.73,-174"/>
<polygon fill="black" stroke="black" points="1159.73,-170.5 1149.73,-174 1159.73,-177.5 1159.73,-170.5"/>
</g>
<!-- CategoryProfilComponent -->
<g id="node4" class="node">
<title>CategoryProfilComponent</title>
<polygon fill="#ffffb3" stroke="black" points="1780.04,-122 1615.96,-122 1615.96,-86 1780.04,-86 1780.04,-122"/>
<text text-anchor="middle" x="1698" y="-99.8" font-family="Times,serif" font-size="14.00">CategoryProfilComponent</text>
</g>
<!-- CategoryProfilComponent&#45;&gt;AppModule -->
<g id="edge4" class="edge">
<title>CategoryProfilComponent&#45;&gt;AppModule</title>
<path fill="none" stroke="black" d="M1698,-122.11C1698,-141.34 1698,-169 1698,-169 1698,-169 1159.96,-169 1159.96,-169"/>
<polygon fill="black" stroke="black" points="1159.96,-165.5 1149.96,-169 1159.96,-172.5 1159.96,-165.5"/>
</g>
<!-- EmpruntsComponent -->
<g id="node5" class="node">
<title>EmpruntsComponent</title>
<polygon fill="#ffffb3" stroke="black" points="1597.77,-122 1462.23,-122 1462.23,-86 1597.77,-86 1597.77,-122"/>
<text text-anchor="middle" x="1530" y="-99.8" font-family="Times,serif" font-size="14.00">EmpruntsComponent</text>
</g>
<!-- EmpruntsComponent&#45;&gt;AppModule -->
<g id="edge5" class="edge">
<title>EmpruntsComponent&#45;&gt;AppModule</title>
<path fill="none" stroke="black" d="M1530,-122.3C1530,-140.27 1530,-165 1530,-165 1530,-165 1160.01,-165 1160.01,-165"/>
<polygon fill="black" stroke="black" points="1160.01,-161.5 1150.01,-165 1160.01,-168.5 1160.01,-161.5"/>
</g>
<!-- EtudiantComponent -->
<g id="node6" class="node">
<title>EtudiantComponent</title>
<polygon fill="#ffffb3" stroke="black" points="1444.27,-122 1315.73,-122 1315.73,-86 1444.27,-86 1444.27,-122"/>
<text text-anchor="middle" x="1380" y="-99.8" font-family="Times,serif" font-size="14.00">EtudiantComponent</text>
</g>
<!-- EtudiantComponent&#45;&gt;AppModule -->
<g id="edge6" class="edge">
<title>EtudiantComponent&#45;&gt;AppModule</title>
<path fill="none" stroke="black" d="M1380,-122.03C1380,-138.4 1380,-160 1380,-160 1380,-160 1159.9,-160 1159.9,-160"/>
<polygon fill="black" stroke="black" points="1159.9,-156.5 1149.9,-160 1159.9,-163.5 1159.9,-156.5"/>
</g>
<!-- HomeComponent -->
<g id="node7" class="node">
<title>HomeComponent</title>
<polygon fill="#ffffb3" stroke="black" points="1297.55,-122 1182.45,-122 1182.45,-86 1297.55,-86 1297.55,-122"/>
<text text-anchor="middle" x="1240" y="-99.8" font-family="Times,serif" font-size="14.00">HomeComponent</text>
</g>
<!-- HomeComponent&#45;&gt;AppModule -->
<g id="edge7" class="edge">
<title>HomeComponent&#45;&gt;AppModule</title>
<path fill="none" stroke="black" d="M1240,-122.19C1240,-137.18 1240,-156 1240,-156 1240,-156 1159.77,-156 1159.77,-156"/>
<polygon fill="black" stroke="black" points="1159.77,-152.5 1149.77,-156 1159.77,-159.5 1159.77,-152.5"/>
</g>
<!-- LivreComponent -->
<g id="node8" class="node">
<title>LivreComponent</title>
<polygon fill="#ffffb3" stroke="black" points="1163.65,-122 1052.35,-122 1052.35,-86 1163.65,-86 1163.65,-122"/>
<text text-anchor="middle" x="1108" y="-99.8" font-family="Times,serif" font-size="14.00">LivreComponent</text>
</g>
<!-- LivreComponent&#45;&gt;AppModule -->
<g id="edge8" class="edge">
<title>LivreComponent&#45;&gt;AppModule</title>
<path fill="none" stroke="black" d="M1108,-122.11C1108,-122.11 1108,-140.99 1108,-140.99"/>
<polygon fill="black" stroke="black" points="1104.5,-140.99 1108,-150.99 1111.5,-140.99 1104.5,-140.99"/>
</g>
<!-- LivreProfilComponent -->
<g id="node9" class="node">
<title>LivreProfilComponent</title>
<polygon fill="#ffffb3" stroke="black" points="1033.54,-122 890.46,-122 890.46,-86 1033.54,-86 1033.54,-122"/>
<text text-anchor="middle" x="962" y="-99.8" font-family="Times,serif" font-size="14.00">LivreProfilComponent</text>
</g>
<!-- LivreProfilComponent&#45;&gt;AppModule -->
<g id="edge9" class="edge">
<title>LivreProfilComponent&#45;&gt;AppModule</title>
<path fill="none" stroke="black" d="M962,-122.19C962,-137.18 962,-156 962,-156 962,-156 1056.16,-156 1056.16,-156"/>
<polygon fill="black" stroke="black" points="1056.16,-159.5 1066.16,-156 1056.16,-152.5 1056.16,-159.5"/>
</g>
<!-- LivresAssociesComponent -->
<g id="node10" class="node">
<title>LivresAssociesComponent</title>
<polygon fill="#ffffb3" stroke="black" points="872.36,-122 705.64,-122 705.64,-86 872.36,-86 872.36,-122"/>
<text text-anchor="middle" x="789" y="-99.8" font-family="Times,serif" font-size="14.00">LivresAssociesComponent</text>
</g>
<!-- LivresAssociesComponent&#45;&gt;AppModule -->
<g id="edge10" class="edge">
<title>LivresAssociesComponent&#45;&gt;AppModule</title>
<path fill="none" stroke="black" d="M789,-122.03C789,-138.4 789,-160 789,-160 789,-160 1056.3,-160 1056.3,-160"/>
<polygon fill="black" stroke="black" points="1056.3,-163.5 1066.3,-160 1056.3,-156.5 1056.3,-163.5"/>
</g>
<!-- PowerBiComponent -->
<g id="node11" class="node">
<title>PowerBiComponent</title>
<polygon fill="#ffffb3" stroke="black" points="687.32,-122 556.68,-122 556.68,-86 687.32,-86 687.32,-122"/>
<text text-anchor="middle" x="622" y="-99.8" font-family="Times,serif" font-size="14.00">PowerBiComponent</text>
</g>
<!-- PowerBiComponent&#45;&gt;AppModule -->
<g id="edge11" class="edge">
<title>PowerBiComponent&#45;&gt;AppModule</title>
<path fill="none" stroke="black" d="M622,-122.3C622,-140.27 622,-165 622,-165 622,-165 1056.14,-165 1056.14,-165"/>
<polygon fill="black" stroke="black" points="1056.14,-168.5 1066.14,-165 1056.14,-161.5 1056.14,-168.5"/>
</g>
<!-- ProfileComponent -->
<g id="node12" class="node">
<title>ProfileComponent</title>
<polygon fill="#ffffb3" stroke="black" points="538.93,-122 419.07,-122 419.07,-86 538.93,-86 538.93,-122"/>
<text text-anchor="middle" x="479" y="-99.8" font-family="Times,serif" font-size="14.00">ProfileComponent</text>
</g>
<!-- ProfileComponent&#45;&gt;AppModule -->
<g id="edge12" class="edge">
<title>ProfileComponent&#45;&gt;AppModule</title>
<path fill="none" stroke="black" d="M479,-122.11C479,-141.34 479,-169 479,-169 479,-169 1056.24,-169 1056.24,-169"/>
<polygon fill="black" stroke="black" points="1056.24,-172.5 1066.24,-169 1056.24,-165.5 1056.24,-172.5"/>
</g>
<!-- RservesComponent -->
<g id="node13" class="node">
<title>RservesComponent</title>
<polygon fill="#ffffb3" stroke="black" points="400.65,-122 275.35,-122 275.35,-86 400.65,-86 400.65,-122"/>
<text text-anchor="middle" x="338" y="-99.8" font-family="Times,serif" font-size="14.00">RservesComponent</text>
</g>
<!-- RservesComponent&#45;&gt;AppModule -->
<g id="edge13" class="edge">
<title>RservesComponent&#45;&gt;AppModule</title>
<path fill="none" stroke="black" d="M338,-122.03C338,-142.77 338,-174 338,-174 338,-174 1056.33,-174 1056.33,-174"/>
<polygon fill="black" stroke="black" points="1056.33,-177.5 1066.33,-174 1056.33,-170.5 1056.33,-177.5"/>
</g>
<!-- AppComponent  -->
<g id="node17" class="node">
<title>AppComponent </title>
<polygon fill="#80b1d3" stroke="black" points="1162.44,-252 1053.56,-252 1053.56,-216 1162.44,-216 1162.44,-252"/>
<text text-anchor="middle" x="1108" y="-229.8" font-family="Times,serif" font-size="14.00">AppComponent </text>
</g>
<!-- AppModule&#45;&gt;AppComponent  -->
<g id="edge16" class="edge">
<title>AppModule&#45;&gt;AppComponent </title>
<path fill="none" stroke="black" stroke-dasharray="1,5" d="M1108,-187.11C1108,-187.11 1108,-205.99 1108,-205.99"/>
<polygon fill="black" stroke="black" points="1104.5,-205.99 1108,-215.99 1111.5,-205.99 1104.5,-205.99"/>
</g>
<!-- AppRoutingModule -->
<g id="node15" class="node">
<title>AppRoutingModule</title>
<polygon fill="#8dd3c7" stroke="black" points="251.27,-122 248.27,-126 227.27,-126 224.27,-122 122.73,-122 122.73,-86 251.27,-86 251.27,-122"/>
<text text-anchor="middle" x="187" y="-99.8" font-family="Times,serif" font-size="14.00">AppRoutingModule</text>
</g>
<!-- AppRoutingModule&#45;&gt;AppModule -->
<g id="edge14" class="edge">
<title>AppRoutingModule&#45;&gt;AppModule</title>
<path fill="none" stroke="black" d="M187,-122.29C187,-144.21 187,-178 187,-178 187,-178 1056.34,-178 1056.34,-178"/>
<polygon fill="black" stroke="black" points="1056.34,-181.5 1066.34,-178 1056.34,-174.5 1056.34,-181.5"/>
</g>
<!-- MatDrawer -->
<g id="node16" class="node">
<title>MatDrawer</title>
<polygon fill="#8dd3c7" stroke="black" points="104.01,-122 101.01,-126 80.01,-126 77.01,-122 23.99,-122 23.99,-86 104.01,-86 104.01,-122"/>
<text text-anchor="middle" x="64" y="-99.8" font-family="Times,serif" font-size="14.00">MatDrawer</text>
</g>
<!-- MatDrawer&#45;&gt;AppModule -->
<g id="edge15" class="edge">
<title>MatDrawer&#45;&gt;AppModule</title>
<path fill="none" stroke="black" d="M64,-122.32C64,-145.66 64,-183 64,-183 64,-183 1056.11,-183 1056.11,-183"/>
<polygon fill="black" stroke="black" points="1056.11,-186.5 1066.11,-183 1056.11,-179.5 1056.11,-186.5"/>
</g>
</g>
</svg>
